<?xml version="1.0" encoding="utf-8"?>
<!-- Generator: Adobe Illustrator 22.0.1, SVG Export Plug-In . SVG Version: 6.00 Build 0)  -->
<svg version="1.1" id="Layer_1" xmlns="http://www.w3.org/2000/svg" xmlns:xlink="http://www.w3.org/1999/xlink" x="0px" y="0px"
	 viewBox="0 0 72 72" style="enable-background:new 0 0 72 72;" xml:space="preserve">
<g>
	<path d="M1.3,46.4c0.2,0.7,0.4,1.3,0.6,2l1.9-0.7c-0.2-0.6-0.4-1.2-0.6-1.8L1.3,46.4z"/>
	<path d="M47.9,2.3c-0.6-0.2-1.3-0.4-2-0.6l-0.6,1.9C46,3.8,46.6,4,47.2,4.2L47.9,2.3z"/>
	<path d="M6.1,56.5c0.4,0.6,0.8,1.1,1.2,1.7L8.9,57c-0.4-0.5-0.8-1-1.1-1.6L6.1,56.5z"/>
	<path d="M13.8,64.7c0.5,0.4,1.1,0.8,1.7,1.2l1.1-1.7c-0.5-0.4-1.1-0.7-1.6-1.1L13.8,64.7z"/>
	<path d="M8.9,15.5l-1.6-1.2c-0.4,0.5-0.8,1.1-1.2,1.7L7.7,17C8.1,16.5,8.5,16,8.9,15.5z"/>
	<path d="M1.8,36.2c0-0.3,0-0.6,0-0.9l-2-0.1c0,0.3,0,0.7,0,1c0,0.3,0,0.7,0,1l1,0l1-0.1C1.8,36.8,1.8,36.5,1.8,36.2z"/>
	<path d="M36.7,2.2l0.1-2c-0.6,0-1.3,0-1.9,0l-0.1,0l0.2,2C35.5,2.2,36.1,2.2,36.7,2.2z"/>
	<path d="M26.2,3.6l-0.6-1.9c-0.7,0.2-1.3,0.4-2,0.6l0.7,1.9C24.9,4,25.6,3.8,26.2,3.6z"/>
	<path d="M16.6,8.2l-1.1-1.6c-0.6,0.4-1.1,0.8-1.7,1.2L15,9.3C15.5,8.9,16.1,8.5,16.6,8.2z"/>
	<path d="M3.8,24.8l-1.9-0.7c-0.2,0.6-0.4,1.3-0.6,2l1.9,0.6C3.3,26,3.5,25.4,3.8,24.8z"/>
	<path d="M67.8,47.7l1.9,0.7c0.2-0.6,0.4-1.3,0.6-2l-1.9-0.6C68.2,46.5,68,47.1,67.8,47.7z"/>
	<path d="M70.3,26c-0.2-0.7-0.4-1.3-0.6-2l-1.9,0.7c0.2,0.6,0.4,1.2,0.6,1.8L70.3,26z"/>
	<path d="M62.7,57l1.6,1.2c0.4-0.5,0.8-1.1,1.2-1.7l-1.6-1.1C63.5,56,63.1,56.5,62.7,57z"/>
	<path d="M65.5,15.8c-0.4-0.6-0.8-1.1-1.2-1.7l-1.6,1.2c0.4,0.5,0.8,1,1.1,1.6L65.5,15.8z"/>
	<path d="M71.8,35.2l0-0.1l-2,0.1l0,0.1c0,0.3,0,0.6,0,0.9c0,0.3,0,0.7,0,1l2,0.1c0-0.4,0-0.7,0-1.1C71.8,35.9,71.8,35.6,71.8,35.2z
		"/>
	<path d="M57.7,7.7c-0.5-0.4-1.1-0.8-1.7-1.2L55,8.1c0.5,0.4,1.1,0.7,1.6,1.1L57.7,7.7z"/>
	<path d="M45.4,68.9l0.6,1.9c0.7-0.2,1.3-0.4,2-0.6l-0.7-1.9C46.6,68.5,46,68.7,45.4,68.9z"/>
	<path d="M23.7,70.1c0.6,0.2,1.3,0.4,2,0.6l0.6-1.9c-0.6-0.2-1.2-0.4-1.8-0.6L23.7,70.1z"/>
	<path d="M34.8,70.2l-0.1,2c0.3,0,0.7,0,1,0c0.3,0,0.7,0,1,0l0.1,0l-0.1-2C36.1,70.2,35.4,70.2,34.8,70.2z"/>
	<path d="M55,64.3l1.1,1.7c0.6-0.4,1.1-0.8,1.7-1.2l-1.2-1.6C56,63.6,55.5,63.9,55,64.3z"/>
	<path d="M52,19.2c-4.6-4.3-10.5-6.6-16.8-6.4c-6.3,0.2-12.1,2.8-16.4,7.3s-6.6,10.5-6.4,16.8c0.2,6.3,2.8,12.1,7.3,16.4
		c4.4,4.2,10.1,6.4,16.1,6.4c0.2,0,0.4,0,0.7,0c6.3-0.2,12.1-2.8,16.4-7.3s6.6-10.5,6.4-16.8C59.1,29.3,56.5,23.5,52,19.2z M51.4,51
		c-3.9,4.2-9.3,6.6-15,6.7C24.5,58,14.6,48.6,14.3,36.8c-0.2-5.7,1.9-11.2,5.9-15.4c3.9-4.2,9.3-6.6,15-6.7c0.2,0,0.4,0,0.6,0
		c5.5,0,10.7,2.1,14.8,5.9c4.2,3.9,6.6,9.3,6.7,15C57.4,41.4,55.4,46.8,51.4,51z"/>
	<path d="M36.5,33.5c-0.6,0-1.1,0.1-1.6,0.3s-0.9,0.3-1.2,0.6l0.5-4h6.7v-2.7h-9.5l-1,9.5l3,0.2c0.1-0.4,0.4-0.7,0.7-1
		s0.8-0.4,1.5-0.4c0.8,0,1.4,0.3,1.8,0.9s0.6,1.4,0.6,2.3s-0.2,1.7-0.6,2.3s-1,0.8-1.8,0.8c-0.7,0-1.3-0.2-1.7-0.6s-0.6-1-0.6-1.7
		l-3.3,0.2l0,0.1c0,1.5,0.5,2.6,1.6,3.4s2.5,1.2,4,1.2c1.9,0,3.4-0.5,4.3-1.6s1.4-2.4,1.4-4.1c0-1.8-0.4-3.2-1.3-4.2
		S38.1,33.4,36.5,33.5z"/>
</g>
</svg>
