<?xml version="1.0" encoding="utf-8"?>
<!-- Generator: Adobe Illustrator 22.0.1, SVG Export Plug-In . SVG Version: 6.00 Build 0)  -->
<svg version="1.1" id="Layer_1" xmlns="http://www.w3.org/2000/svg" xmlns:xlink="http://www.w3.org/1999/xlink" x="0px" y="0px"
	 viewBox="0 0 72 72" style="enable-background:new 0 0 72 72;" xml:space="preserve">
<g>
	<path d="M4.1,24.8l-1.9-0.7c-0.2,0.6-0.4,1.3-0.6,2l1.9,0.6C3.7,26,3.9,25.4,4.1,24.8z"/>
	<path d="M2.1,36.2c0-0.3,0-0.6,0-0.9l-2-0.1c0,0.3,0,0.7,0,1c0,0.3,0,0.7,0,1l1,0l1-0.1C2.1,36.8,2.1,36.5,2.1,36.2z"/>
	<path d="M6.4,56.5c0.4,0.6,0.8,1.1,1.2,1.7L9.2,57c-0.4-0.5-0.8-1-1.1-1.6L6.4,56.5z"/>
	<path d="M9.2,15.5l-1.6-1.2c-0.4,0.5-0.8,1.1-1.2,1.7L8,17C8.4,16.5,8.8,16,9.2,15.5z"/>
	<path d="M37,2.2l0.1-2c-0.6,0-1.3,0-1.9,0l-0.1,0l0.2,2C35.8,2.2,36.4,2.2,37,2.2z"/>
	<path d="M16.9,8.2l-1.1-1.6c-0.6,0.4-1.1,0.8-1.7,1.2l1.2,1.6C15.8,8.9,16.4,8.5,16.9,8.2z"/>
	<path d="M58.1,7.7c-0.5-0.4-1.1-0.8-1.7-1.2l-1.1,1.7c0.5,0.4,1.1,0.7,1.6,1.1L58.1,7.7z"/>
	<path d="M48.2,2.3c-0.6-0.2-1.3-0.4-2-0.6l-0.6,1.9c0.6,0.2,1.2,0.4,1.9,0.6L48.2,2.3z"/>
	<path d="M14.1,64.7c0.5,0.4,1.1,0.8,1.7,1.2l1.1-1.7c-0.5-0.4-1.1-0.7-1.6-1.1L14.1,64.7z"/>
	<path d="M26.5,3.6l-0.6-1.9c-0.7,0.2-1.3,0.4-2,0.6l0.7,1.9C25.3,4,25.9,3.8,26.5,3.6z"/>
	<path d="M1.6,46.4c0.2,0.7,0.4,1.3,0.6,2l1.9-0.7c-0.2-0.6-0.4-1.2-0.6-1.8L1.6,46.4z"/>
	<path d="M70.6,26c-0.2-0.7-0.4-1.3-0.6-2l-1.9,0.7c0.2,0.6,0.4,1.2,0.6,1.8L70.6,26z"/>
	<path d="M63,57l1.6,1.2c0.4-0.5,0.8-1.1,1.2-1.7l-1.6-1.1C63.8,56,63.4,56.5,63,57z"/>
	<path d="M65.8,15.8c-0.4-0.6-0.8-1.1-1.2-1.7L63,15.4c0.4,0.5,0.8,1,1.1,1.6L65.8,15.8z"/>
	<path d="M68.1,47.7l1.9,0.7c0.2-0.6,0.4-1.3,0.6-2l-1.9-0.6C68.5,46.5,68.3,47.1,68.1,47.7z"/>
	<path d="M24,70.1c0.6,0.2,1.3,0.4,2,0.6l0.6-1.9c-0.6-0.2-1.2-0.4-1.8-0.6L24,70.1z"/>
	<path d="M72.1,35.2l0-0.1l-2,0.1l0,0.1c0,0.3,0,0.6,0,0.9c0,0.3,0,0.7,0,1l2,0.1c0-0.4,0-0.7,0-1.1C72.1,35.9,72.1,35.6,72.1,35.2z
		"/>
	<path d="M35.1,70.2l-0.1,2c0.3,0,0.7,0,1,0c0.3,0,0.7,0,1,0l0.1,0l-0.1-2C36.4,70.2,35.8,70.2,35.1,70.2z"/>
	<path d="M55.3,64.3l1.1,1.7c0.6-0.4,1.1-0.8,1.7-1.2l-1.2-1.6C56.3,63.6,55.8,63.9,55.3,64.3z"/>
	<path d="M45.7,68.9l0.6,1.9c0.7-0.2,1.3-0.4,2-0.6l-0.7-1.9C46.9,68.5,46.3,68.7,45.7,68.9z"/>
	<path d="M52.3,19.2c-4.6-4.3-10.5-6.6-16.8-6.4c-6.3,0.2-12.1,2.8-16.4,7.3s-6.6,10.5-6.4,16.8c0.2,6.3,2.8,12.1,7.3,16.4
		c4.4,4.2,10.1,6.4,16.1,6.4c0.2,0,0.4,0,0.7,0c6.3-0.2,12.1-2.8,16.4-7.3s6.6-10.5,6.4-16.8C59.4,29.3,56.8,23.5,52.3,19.2z
		 M51.7,51c-3.9,4.2-9.3,6.6-15,6.7C24.8,58,14.9,48.6,14.6,36.8c-0.2-5.7,1.9-11.2,5.9-15.4c3.9-4.2,9.3-6.6,15-6.7
		c0.2,0,0.4,0,0.6,0c5.5,0,10.7,2.1,14.8,5.9c4.2,3.9,6.6,9.3,6.7,15C57.8,41.4,55.7,46.8,51.7,51z"/>
	<path d="M39.2,36c0.8-0.4,1.4-0.9,1.8-1.5s0.7-1.4,0.7-2.2c0-1.6-0.5-2.7-1.6-3.6s-2.4-1.2-4.2-1.2c-1.6,0-2.9,0.4-4,1.3
		s-1.6,2-1.5,3.3l0,0.1h3.3c0-0.6,0.2-1.1,0.6-1.5s1-0.6,1.6-0.6c0.7,0,1.3,0.2,1.7,0.6s0.6,1,0.6,1.6c0,0.8-0.2,1.4-0.6,1.8
		s-1,0.6-1.8,0.6H34v2.6h1.9c0.9,0,1.5,0.2,2,0.7s0.7,1.1,0.7,2c0,0.7-0.2,1.3-0.7,1.7s-1.1,0.7-1.9,0.7c-0.7,0-1.3-0.2-1.7-0.7
		s-0.7-1-0.7-1.6h-3.3l0,0.1c0,1.5,0.5,2.7,1.7,3.6S34.4,45,36,45c1.8,0,3.2-0.4,4.3-1.3S42,41.5,42,40c0-1-0.2-1.8-0.7-2.5
		S40.1,36.3,39.2,36z"/>
</g>
</svg>
