<?xml version="1.0" encoding="utf-8"?>
<!-- Generator: Adobe Illustrator 22.0.1, SVG Export Plug-In . SVG Version: 6.00 Build 0)  -->
<svg version="1.1" id="Layer_1" xmlns="http://www.w3.org/2000/svg" xmlns:xlink="http://www.w3.org/1999/xlink" x="0px" y="0px"
	 viewBox="0 0 72 72" style="enable-background:new 0 0 72 72;" xml:space="preserve">
<g>
	<path d="M12.7,11.7v48h48v-48H12.7z M59.7,58.7h-46v-46h46V58.7z"/>
	<path d="M35.3,42.7L35.3,42.7h2.6v-6.4H40l0.3-2.5h-2.4v-1.6c0-0.4,0.1-0.7,0.2-0.9c0.2-0.2,0.5-0.3,0.9-0.3h1.3v-2.2
		c-0.4-0.1-1.1-0.1-1.9-0.1c-0.9,0-1.7,0.3-2.3,0.9c-0.6,0.6-0.8,1.4-0.8,2.4v1.8h-2.1v2.5h2.1V42.7z"/>
</g>
</svg>
