<?xml version="1.0" encoding="utf-8"?>
<!-- Generator: Adobe Illustrator 22.0.1, SVG Export Plug-In . SVG Version: 6.00 Build 0)  -->
<svg version="1.1" id="Layer_1" xmlns="http://www.w3.org/2000/svg" xmlns:xlink="http://www.w3.org/1999/xlink" x="0px" y="0px"
	 viewBox="0 0 72 72" style="enable-background:new 0 0 72 72;" xml:space="preserve">
<g>
	<path d="M18,29.6h-2c-0.5,2.6-2.6,4.7-5.2,5.2v2c2.6,0.5,4.7,2.6,5.2,5.2h2c0.5-2.6,2.6-4.7,5.2-5.2v-2
		C20.6,34.2,18.5,32.2,18,29.6z M17,38.9c-0.8-1.3-1.9-2.4-3.2-3.2c1.3-0.8,2.4-1.9,3.2-3.2c0.8,1.3,1.9,2.4,3.2,3.2
		C18.9,36.5,17.8,37.6,17,38.9z"/>
	<path d="M37,29.6h-2c-0.5,2.6-2.6,4.7-5.2,5.2v2c2.6,0.5,4.7,2.6,5.2,5.2h2c0.5-2.6,2.6-4.7,5.2-5.2v-2
		C39.6,34.2,37.5,32.2,37,29.6z"/>
	<path d="M56,29.6h-2c-0.5,2.6-2.6,4.7-5.2,5.2v2c2.6,0.5,4.7,2.6,5.2,5.2h2c0.5-2.6,2.6-4.7,5.2-5.2v-2
		C58.6,34.2,56.5,32.2,56,29.6z M55,38.9c-0.8-1.3-1.9-2.4-3.2-3.2c1.3-0.8,2.4-1.9,3.2-3.2c0.8,1.3,1.9,2.4,3.2,3.2
		C56.9,36.5,55.8,37.6,55,38.9z"/>
</g>
</svg>
