<?xml version="1.0" encoding="utf-8"?>
<!-- Generator: Adobe Illustrator 22.0.1, SVG Export Plug-In . SVG Version: 6.00 Build 0)  -->
<svg version="1.1" id="Layer_1" xmlns="http://www.w3.org/2000/svg" xmlns:xlink="http://www.w3.org/1999/xlink" x="0px" y="0px"
	 viewBox="0 0 72 72" style="enable-background:new 0 0 72 72;" xml:space="preserve">
<style type="text/css">
	.st0{fill-rule:evenodd;clip-rule:evenodd;}
</style>
<g id="Shape_x5F_turn_1_">
	<path class="st0" d="M36,29.8c-5.3,0-11,1.8-11,5.1c0,2.9,4.4,4.7,9,5l-1.3,1.3l1.4,1.5l3.6-3.7l-3.6-3.7l-1.4,1.5l1,1.1
		c-4.2-0.4-6.8-1.9-6.8-3c0-1.3,3.5-3.1,9-3.1c5.5,0,9,1.8,9,3.1c0,0.8-1.7,2.2-5.5,2.8l0.3,2c4.5-0.7,7.2-2.6,7.2-4.8
		C47,31.6,41.3,29.8,36,29.8z"/>
</g>
</svg>
